<svg width="300" height="300" viewBox="0 0 300 300" fill="none" xmlns="http://www.w3.org/2000/svg">
<g clip-path="url(#clip0_41_27)">
<path d="M44.4645 171.536C46.4171 169.583 49.5829 169.583 51.5355 171.536L94.4645 214.464C96.4171 216.417 96.4171 219.583 94.4645 221.536L51.5355 264.464C49.5829 266.417 46.4171 266.417 44.4645 264.464L1.53553 221.536C-0.417088 219.583 -0.417087 216.417 1.53553 214.464L44.4645 171.536Z" fill="#F70776" fill-opacity="0.19"/>
<path d="M44.4645 171.536C46.4171 169.583 49.5829 169.583 51.5355 171.536L94.4645 214.464C96.4171 216.417 96.4171 219.583 94.4645 221.536L51.5355 264.464C49.5829 266.417 46.4171 266.417 44.4645 264.464L1.53553 221.536C-0.417088 219.583 -0.417087 216.417 1.53553 214.464L44.4645 171.536Z" fill="#F70776" fill-opacity="0.19"/>
<path d="M304.784 -8.02262C307.522 -7.66622 309.453 -5.15745 309.097 -2.41912L301.261 57.7838C300.905 60.5221 298.396 62.4531 295.658 62.0967L235.455 54.2612C232.716 53.9048 230.785 51.396 231.142 48.6577L238.977 -11.5452C239.334 -14.2836 241.843 -16.2145 244.581 -15.8581L304.784 -8.02262Z" fill="#F70776" fill-opacity="0.19"/>
<path d="M304.784 -8.02262C307.522 -7.66622 309.453 -5.15745 309.097 -2.41912L301.261 57.7838C300.905 60.5221 298.396 62.4531 295.658 62.0967L235.455 54.2612C232.716 53.9048 230.785 51.396 231.142 48.6577L238.977 -11.5452C239.334 -14.2836 241.843 -16.2145 244.581 -15.8581L304.784 -8.02262Z" fill="#F70776" fill-opacity="0.19"/>
<path d="M54.8221 32.3853C43.892 32.3853 34.9998 41.2745 34.9998 52.1999C34.9998 63.1253 43.892 72.0146 54.8221 72.0146C65.761 72.0146 74.6608 63.1253 74.6608 52.1999C74.6608 41.2745 65.761 32.3853 54.8221 32.3853V32.3853ZM54.8221 60.1974C50.4082 60.1974 46.8176 56.6097 46.8176 52.1999C46.8176 47.7901 50.4082 44.203 54.8221 44.203C59.2447 44.203 62.8436 47.7907 62.8436 52.2005C62.8436 56.6103 59.2447 60.1974 54.8221 60.1974Z" fill="white"/>
<path d="M228.143 32.3853H175.743C164.813 32.3853 155.921 41.2745 155.921 52.1999C155.921 63.1253 164.813 72.0146 175.743 72.0146H228.143C239.073 72.0146 247.965 63.1253 247.965 52.1999C247.965 41.2745 239.073 32.3853 228.143 32.3853V32.3853ZM228.143 60.1974H175.743C171.329 60.1974 167.739 56.6097 167.739 52.1999C167.739 47.7901 171.33 44.2024 175.743 44.2024H228.143C232.557 44.2024 236.147 47.7901 236.147 52.1999C236.147 56.6097 232.557 60.1974 228.143 60.1974V60.1974Z" fill="white"/>
<path d="M106.192 32.3853C95.2623 32.3853 86.3701 41.2745 86.3701 52.1999C86.3701 63.1253 95.2623 72.0146 106.192 72.0146C117.131 72.0146 126.031 63.1253 126.031 52.1999C126.031 41.2745 117.131 32.3853 106.192 32.3853V32.3853ZM106.192 60.1974C101.779 60.1974 98.1879 56.6097 98.1879 52.1999C98.1879 47.7901 101.779 44.2024 106.192 44.2024C110.615 44.2024 114.214 47.7901 114.214 52.1999C114.214 56.6097 110.615 60.1974 106.192 60.1974Z" fill="white"/>
<path d="M96.5578 130.338C93.3849 129.578 90.1957 131.537 89.4375 134.712L77.7152 183.765C76.957 186.939 78.9146 190.127 82.0887 190.886C82.5504 190.996 83.0127 191.049 83.4674 191.049C86.1387 191.049 88.5609 189.224 89.209 186.512L100.931 137.459C101.69 134.285 99.7318 131.097 96.5578 130.338V130.338Z" fill="white"/>
<path d="M118.251 185.121C119.377 186.124 120.781 186.617 122.179 186.617C123.806 186.617 125.426 185.949 126.594 184.638L143.163 166.038C145.897 162.995 145.897 158.229 143.18 155.205L126.594 136.586C124.422 134.148 120.687 133.934 118.251 136.103C115.814 138.274 115.598 142.01 117.769 144.446L132.169 160.611L117.769 176.777C115.598 179.215 115.814 182.95 118.251 185.121V185.121Z" fill="white"/>
<path d="M60.3961 136.104C57.9586 133.933 54.2244 134.15 52.0535 136.586L35.4861 155.184C32.7486 158.228 32.7486 162.997 35.4674 166.02L52.0541 184.639C53.2219 185.95 54.8414 186.618 56.4691 186.618C57.8672 186.618 59.2717 186.124 60.3973 185.121C62.8348 182.95 63.0504 179.215 60.8795 176.779L46.4789 160.613L60.8795 144.447C63.0492 142.01 62.8336 138.274 60.3961 136.104V136.104Z" fill="white"/>
<path d="M286.753 198.944H284.559C283.41 195.223 281.921 191.63 280.105 188.196L281.67 186.625C284.17 184.14 285.55 180.822 285.555 177.282C285.561 173.733 284.186 170.402 281.682 167.899L278.632 164.85V38.9911C278.632 21.3667 266.195 7.02881 250.907 7.02881H27.7254C12.4371 7.02881 0 21.3667 0 38.9911V204.139C0 221.764 12.4371 236.102 27.7254 236.102H62.393C65.6561 236.102 68.3016 233.456 68.3016 230.193C68.3016 226.93 65.6561 224.284 62.393 224.284H27.7254C19.1027 224.284 11.8178 215.059 11.8178 204.14V96.9403H266.814V156.65C266.14 156.547 265.458 156.479 264.764 156.479C264.757 156.479 264.75 156.479 264.744 156.479C261.203 156.484 257.885 157.863 255.42 160.342L253.822 161.932C250.317 160.08 246.666 158.573 242.901 157.423V155.318C242.901 148.015 236.958 142.075 229.654 142.075H218.961C211.665 142.075 205.73 148.015 205.73 155.318V157.567C202.037 158.728 198.47 160.222 195.061 162.036L193.53 160.51C191.045 158.012 187.726 156.633 184.186 156.627C184.179 156.627 184.173 156.627 184.166 156.627C180.625 156.627 177.301 158.001 174.803 160.498L167.248 168.049C164.745 170.55 163.37 173.883 163.375 177.431C163.38 180.971 164.76 184.289 167.241 186.755L168.873 188.391C167.102 191.772 165.647 195.299 164.521 198.943H162.277C154.981 198.943 149.046 204.876 149.046 212.17V222.874C149.046 223.349 149.072 223.819 149.122 224.282H114.742C111.479 224.282 108.833 226.928 108.833 230.191C108.833 233.454 111.479 236.099 114.742 236.099H162.277H164.544C165.686 239.778 167.163 243.333 168.965 246.736L167.368 248.326C162.228 253.494 162.233 261.884 167.381 267.028L174.939 274.584C177.425 277.082 180.744 278.461 184.284 278.466H184.303C187.845 278.466 191.169 277.092 193.667 274.595L195.25 273.014C198.683 274.824 202.253 276.303 205.928 277.439V279.726C205.928 287.029 211.863 292.97 219.159 292.97H229.869C237.164 292.97 243.099 287.029 243.099 279.726V277.453C246.809 276.309 250.393 274.824 253.823 273.013L255.398 274.583C257.883 277.082 261.202 278.46 264.742 278.466H264.762C268.303 278.466 271.628 277.092 274.13 274.591L281.668 267.04C284.169 264.555 285.548 261.237 285.554 257.697C285.559 254.149 284.184 250.817 281.68 248.314L280.103 246.738C281.902 243.332 283.378 239.775 284.518 236.1H286.751C294.056 236.1 299.999 230.167 299.999 222.874V212.17C300 204.878 294.057 198.944 286.753 198.944V198.944ZM11.8178 85.1226V38.9911C11.8178 28.0722 19.1027 18.8466 27.7254 18.8466H250.907C259.529 18.8466 266.814 28.0722 266.814 38.9911V85.1231H11.8178V85.1226ZM288.182 222.875C288.182 223.625 287.514 224.283 286.752 224.283H279.995C277.24 224.283 274.85 226.187 274.235 228.872C272.959 234.442 270.767 239.723 267.72 244.572C266.252 246.907 266.595 249.947 268.546 251.896L273.327 256.675C273.684 257.032 273.737 257.458 273.737 257.681C273.737 257.947 273.667 258.333 273.322 258.675L265.773 266.238C265.415 266.596 264.988 266.65 264.763 266.65C264.762 266.65 264.762 266.65 264.762 266.65C264.493 266.65 264.106 266.58 263.76 266.231L258.961 261.452C257.009 259.509 253.975 259.172 251.645 260.637C246.789 263.691 241.485 265.887 235.88 267.162C233.191 267.775 231.282 270.166 231.282 272.924V279.728C231.282 280.487 230.622 281.154 229.87 281.154H219.161C218.408 281.154 217.747 280.488 217.747 279.728V272.907C217.747 270.146 215.835 267.753 213.142 267.144C207.608 265.892 202.313 263.7 197.406 260.63C196.44 260.025 195.353 259.73 194.273 259.73C192.747 259.73 191.234 260.32 190.095 261.46L185.314 266.238C184.956 266.596 184.529 266.65 184.304 266.65C184.303 266.65 184.303 266.65 184.302 266.65C184.034 266.65 183.646 266.58 183.307 266.239L175.736 258.671C175.206 258.142 175.212 257.203 175.729 256.683L180.527 251.904C182.488 249.951 182.831 246.901 181.354 244.562C178.301 239.729 176.106 234.451 174.829 228.874C174.214 226.189 171.824 224.284 169.069 224.284H162.278C161.512 224.284 160.864 223.639 160.864 222.876V212.173C160.864 211.409 161.512 210.763 162.278 210.763H169.052C171.81 210.763 174.202 208.855 174.814 206.166C176.075 200.625 178.242 195.368 181.254 190.542C182.708 188.211 182.365 185.186 180.425 183.241L175.591 178.393C175.263 178.067 175.194 177.681 175.193 177.415C175.193 177.192 175.246 176.766 175.603 176.409L183.157 168.858C183.515 168.501 183.942 168.447 184.167 168.447H184.169C184.437 168.448 184.825 168.517 185.171 168.865L189.936 173.611C191.893 175.561 194.938 175.895 197.269 174.416C202.097 171.355 207.386 169.138 212.986 167.827C215.658 167.202 217.547 164.818 217.547 162.074V155.32C217.547 154.547 218.194 153.894 218.96 153.894H229.653C230.428 153.894 231.083 154.547 231.083 155.32V161.974C231.083 164.743 233.005 167.14 235.708 167.741C241.33 168.994 246.694 171.205 251.65 174.315C253.979 175.775 257.01 175.437 258.96 173.495L263.779 168.697C264.105 168.368 264.493 168.299 264.761 168.298H264.762C264.987 168.298 265.414 168.352 265.772 168.709L273.326 176.259C273.684 176.617 273.737 177.043 273.737 177.266C273.736 177.532 273.667 177.918 273.319 178.263L268.537 183.059C266.59 185.012 266.253 188.052 267.724 190.384C270.783 195.234 272.984 200.545 274.266 206.168C274.879 208.857 277.27 210.764 280.028 210.764H286.752C287.514 210.764 288.182 211.423 288.182 212.173V222.875Z" fill="#F70776"/>
<path d="M224.524 181.437C204.612 181.437 188.413 197.629 188.413 217.531C188.413 237.424 204.612 253.609 224.524 253.609C244.426 253.609 260.617 237.425 260.617 217.531C260.617 197.629 244.426 181.437 224.524 181.437ZM224.524 241.791C211.129 241.791 200.231 230.908 200.231 217.531C200.231 204.145 211.129 193.255 224.524 193.255C237.909 193.255 248.8 204.145 248.8 217.531C248.8 230.908 237.909 241.791 224.524 241.791Z" fill="#F70776"/>
<path d="M88.7426 224.284H88.6266C85.3635 224.284 82.718 226.929 82.718 230.193C82.718 233.456 85.3635 236.101 88.6266 236.101H88.7426C92.0057 236.101 94.6512 233.456 94.6512 230.193C94.6512 226.929 92.0057 224.284 88.7426 224.284Z" fill="#F70776"/>
</g>
<defs>
<clipPath id="clip0_41_27">
<rect width="300" height="300" fill="white"/>
</clipPath>
</defs>
</svg>
