<svg width="300" height="291" viewBox="0 0 300 291" fill="none" xmlns="http://www.w3.org/2000/svg">
<g clip-path="url(#clip0_41_2)">
<path d="M60.4645 75.5355C62.4171 73.5829 65.5829 73.5829 67.5355 75.5355L110.464 118.464C112.417 120.417 112.417 123.583 110.464 125.536L67.5355 168.464C65.5829 170.417 62.4171 170.417 60.4645 168.464L17.5355 125.536C15.5829 123.583 15.5829 120.417 17.5355 118.464L60.4645 75.5355Z" fill="#F70776" fill-opacity="0.19"/>
<path d="M60.4645 75.5355C62.4171 73.5829 65.5829 73.5829 67.5355 75.5355L110.464 118.464C112.417 120.417 112.417 123.583 110.464 125.536L67.5355 168.464C65.5829 170.417 62.4171 170.417 60.4645 168.464L17.5355 125.536C15.5829 123.583 15.5829 120.417 17.5355 118.464L60.4645 75.5355Z" fill="#F70776" fill-opacity="0.19"/>
<path d="M284.665 164.858C287.403 165.214 289.334 167.723 288.977 170.461L281.142 230.664C280.785 233.403 278.277 235.334 275.538 234.977L215.335 227.142C212.597 226.785 210.666 224.277 211.023 221.538L218.858 161.335C219.214 158.597 221.723 156.666 224.462 157.023L284.665 164.858Z" fill="#F70776" fill-opacity="0.19"/>
<path d="M284.665 164.858C287.403 165.214 289.334 167.723 288.977 170.461L281.142 230.664C280.785 233.403 278.277 235.334 275.538 234.977L215.335 227.142C212.597 226.785 210.666 224.277 211.023 221.538L218.858 161.335C219.214 158.597 221.723 156.666 224.462 157.023L284.665 164.858Z" fill="#F70776" fill-opacity="0.19"/>
<path d="M296.447 271.125L209.078 15.362C206.136 6.74944 196.487 0.00283399 187.109 0.00283399C186.977 0.0022672 112.891 0 112.891 0C103.513 0 93.8637 6.74717 90.9217 15.3591L3.55313 271.125C1.91777 275.913 2.55176 280.763 5.29219 284.43C8.03145 288.098 12.5924 290.201 17.8049 290.201H74.8119C94.3664 290.201 111.626 278.134 117.759 260.174L149.999 165.793L182.239 260.175C188.371 278.134 205.63 290.201 225.186 290.201H282.196C287.408 290.201 291.969 288.098 294.709 284.43C297.449 280.762 298.082 275.913 296.447 271.125ZM106.133 256.457C101.66 269.556 89.0731 278.356 74.8119 278.356H17.8049C16.5697 278.356 15.6258 278.041 15.2156 277.491C14.8055 276.941 14.792 275.976 15.1793 274.841L102.548 19.0756C103.84 15.2911 108.77 11.845 112.89 11.845H185.865C187.1 11.845 188.044 12.1601 188.454 12.7099C188.865 13.2597 188.878 14.2255 188.491 15.3597L106.133 256.457ZM284.784 277.491C284.374 278.04 283.43 278.356 282.195 278.356H225.185C210.924 278.356 198.338 269.557 193.867 256.459L156.448 146.917L198.785 22.978L284.821 274.842C285.208 275.977 285.195 276.942 284.784 277.491Z" fill="#F70776"/>
<path d="M91.7414 111.847C88.5293 110.822 85.0682 112.507 84.007 115.612L64.2715 173.383C63.2103 176.488 64.9535 179.838 68.1633 180.864C68.8014 181.068 69.4482 181.165 70.0852 181.165C72.6539 181.165 75.0475 179.588 75.8977 177.1L95.6326 119.329C96.6949 116.223 94.9518 112.873 91.7414 111.847Z" fill="white"/>
<path d="M99.2233 89.9419C96.0129 88.916 92.55 90.6016 91.4889 93.7065L90.5789 96.3699C89.5178 99.4754 91.2609 102.825 94.4707 103.852C95.1088 104.055 95.7557 104.153 96.3926 104.153C98.9619 104.153 101.355 102.575 102.205 100.087L103.115 97.4236C104.177 94.3176 102.434 90.9683 99.2233 89.9419Z" fill="white"/>
</g>
<defs>
<clipPath id="clip0_41_2">
<rect width="300" height="290.201" fill="white"/>
</clipPath>
</defs>
</svg>
