<svg width="201" height="63" viewBox="0 0 201 63" fill="none" xmlns="http://www.w3.org/2000/svg">
<path d="M7.25475 28.0862V18.5697L0.0549927 1.56826L6.82705 0.962345L10.3913 2.74446L11.8883 6.66512L13.8842 0.677205L20.3355 0.106926L23.8997 1.88905L16.9495 19.8528V29.2624L10.819 29.8327L7.25475 28.0862ZM19.8009 0.534635L14.0981 1.03363L10.5339 11.6551L6.57755 1.35441L0.589629 1.88905L7.61118 18.4984V27.6941L13.0288 27.1951V18.035L19.8009 0.534635Z" fill="white"/>
<path d="M26.4053 28.4426V1.35441L41.7672 0L45.3314 1.78212V7.62747L36.0644 8.44724V10.5858L39.8781 10.2294L43.4424 12.0115V17.7855L36.0644 18.4628V21.8131L42.3731 21.2429L45.9373 23.025V28.8347L29.9695 30.2247L26.4053 28.4426ZM32.1437 22.526V16.3599L39.5217 15.6826V10.6214L32.1437 11.2986V6.34434L41.4107 5.52457V0.392065L26.7617 1.67519V28.0862L42.0167 26.7318V21.6349L32.1437 22.526Z" fill="white"/>
<path d="M53.7346 28.0506L46.428 1.56826L53.0931 0.997987L56.6573 2.78011L58.3682 9.65909L60.5067 0.677205L66.958 0.106926L70.5222 1.88905L63.3581 29.298L57.2989 29.8327L53.7346 28.0506ZM60.7918 1.03363L57.691 14.2213C57.5246 15.0054 57.3821 15.7896 57.2632 16.5737C57.1444 17.3341 57.0613 17.9638 57.0137 18.4628C56.9662 18.9617 56.9425 19.2112 56.9425 19.2112H56.8355C56.8355 19.2112 56.7999 18.9736 56.7286 18.4984C56.6811 17.9994 56.5979 17.3816 56.4791 16.645C56.3603 15.9084 56.2059 15.148 56.0158 14.3639L52.8079 1.39005L46.8913 1.88905L53.9841 27.6941L59.4731 27.1951L66.459 0.534635L60.7918 1.03363Z" fill="white"/>
<path d="M85.267 27.908V18.4271L82.9503 18.641V29.797L76.8198 30.3317L73.2555 28.5496V1.46134L79.386 0.926701L82.9503 2.70882V10.7284L85.267 10.5145V0.784133L91.4332 0.213854L94.9974 1.99597V29.1198L88.8313 29.6545L85.267 27.908ZM85.6235 1.10491V10.8353L79.0296 11.4056V1.31877L73.612 1.78212V28.1575L79.0296 27.7298V16.5381L85.6235 15.9678V27.5159L91.0767 27.0169V0.605919L85.6235 1.10491Z" fill="white"/>
<path d="M99.5696 28.4426V1.35441L114.932 0L118.496 1.78212V7.62747L109.229 8.44724V10.5858L113.042 10.2294L116.607 12.0115V17.7855L109.229 18.4628V21.8131L115.537 21.2429L119.102 23.025V28.8347L103.134 30.2247L99.5696 28.4426ZM105.308 22.526V16.3599L112.686 15.6826V10.6214L105.308 11.2986V6.34434L114.575 5.52457V0.392065L99.9261 1.67519V28.0862L115.181 26.7318V21.6349L105.308 22.526Z" fill="white"/>
<path d="M134.562 27.8367L131.889 21.8131V29.797L125.758 30.3317L122.194 28.5496V1.46134L127.968 0.962345L131.533 2.74446L134.17 8.44724V0.784133L140.372 0.213854L143.936 1.99597V29.1198L138.126 29.6188L134.562 27.8367ZM134.526 1.10491V11.0848C134.526 11.3462 134.538 11.7739 134.562 12.3679C134.586 12.9382 134.61 13.5441 134.633 14.1857C134.681 14.8035 134.717 15.3381 134.74 15.7896C134.764 16.2173 134.776 16.4311 134.776 16.4311L134.669 16.5024C134.669 16.5024 134.633 16.3717 134.562 16.1104C134.515 15.849 134.431 15.5401 134.313 15.1837C134.194 14.8035 134.063 14.4589 133.921 14.15L127.754 1.35441L122.551 1.78212V28.1575L127.968 27.7298V18.3915C127.968 18.1063 127.956 17.6192 127.933 16.9301C127.909 16.241 127.885 15.5163 127.861 14.7559C127.861 13.9956 127.849 13.354 127.826 12.8313C127.802 12.2847 127.79 12.0115 127.79 12.0115L127.897 11.9758C127.897 11.9758 127.956 12.2135 128.075 12.6887C128.218 13.1402 128.408 13.6154 128.645 14.1144L134.883 27.4803L140.015 27.0169V0.605919L134.526 1.10491Z" fill="white"/>
<path d="M148.687 28.0862V0.997987L154.888 0.427707L158.453 2.20983V29.298L152.251 29.8327L148.687 28.0862ZM149.043 1.31877V27.6941L154.532 27.1951V0.819775L149.043 1.31877Z" fill="white"/>
<path d="M163.375 28.0862V0.997987L169.577 0.427707L173.141 2.20983V29.298L166.939 29.8327L163.375 28.0862ZM163.732 1.31877V27.6941L169.22 27.1951V0.819775L163.732 1.31877Z" fill="white"/>
<path d="M190.36 27.7298L189.042 23.4883L186.226 23.7378L184.479 29.9752L178.42 30.5099L174.856 28.7278L182.661 0.891059L188.542 0.392065L192.107 2.17419L200.055 29.0129L193.924 29.5119L190.36 27.7298ZM182.947 1.24748L175.39 28.3001L180.594 27.8723L182.376 21.6349L188.721 21.0646L190.61 27.3734L195.992 26.91L188.257 0.784133L182.947 1.24748ZM183.624 16.4311C184.075 14.9579 184.444 13.556 184.729 12.2253C185.038 10.8947 185.299 9.56404 185.513 8.23339H185.655C185.846 9.54028 186.083 10.8234 186.368 12.0828C186.677 13.3184 187.046 14.649 187.473 16.0747L183.624 16.4311Z" fill="white"/>
<path d="M6.53795 60.9089V39.8403L13.7179 39.2027C13.8288 39.1842 13.9304 39.1749 14.0228 39.1749C14.1337 39.1749 14.2446 39.1749 14.3555 39.1749C15.0948 39.1749 15.8063 39.2858 16.4901 39.5076C17.1739 39.7294 17.8947 40.0158 18.6524 40.367C20.0755 40.9953 21.1566 41.8455 21.8959 42.9174C22.6351 43.9708 23.0047 45.3477 23.0047 47.0479C23.0047 49.3766 22.4133 51.2247 21.2305 52.5923C20.0477 53.9599 18.4399 54.7269 16.4069 54.8932L14.0783 55.0873V61.8791L9.31013 62.295L6.53795 60.9089ZM13.607 53.2299C15.5845 53.0636 17.1369 52.3243 18.2643 51.0122C19.3916 49.6815 19.9553 47.8981 19.9553 45.6619C19.9553 44.4236 19.7336 43.3425 19.29 42.4184C18.8465 41.4943 18.2088 40.7736 17.3772 40.2561C16.564 39.7201 15.5753 39.4522 14.411 39.4522C14.3001 39.4522 14.1892 39.4522 14.0783 39.4522C13.9674 39.4522 13.8565 39.4614 13.7456 39.4799L6.81516 40.0898V60.6317L11.0289 60.2713V53.4517L13.607 53.2299ZM11.0289 43.7213L12.914 43.555C12.9879 43.555 13.0526 43.555 13.108 43.555C13.182 43.5365 13.2466 43.5273 13.3021 43.5273C13.9859 43.5273 14.5218 43.7306 14.9099 44.1371C15.3165 44.5253 15.5198 45.2091 15.5198 46.1886C15.5198 47.205 15.2703 47.9628 14.7713 48.4618C14.2723 48.9608 13.6532 49.2472 12.914 49.3211L11.0289 49.4875V43.7213ZM14.0783 48.6835C14.4479 48.4248 14.7344 48.1014 14.9377 47.7133C15.141 47.3252 15.2426 46.8169 15.2426 46.1886C15.2426 45.8005 15.2149 45.4955 15.1594 45.2738L14.0783 45.3569V48.6835Z" fill="white"/>
<path d="M36.2954 62.3504C36.166 62.3689 36.0274 62.3781 35.8796 62.3781C35.7502 62.3781 35.6208 62.3781 35.4915 62.3781C34.5304 62.3781 33.6433 62.2395 32.8302 61.9623C32.0355 61.7036 31.2593 61.3986 30.5015 61.0475C28.524 60.068 27.0733 58.6911 26.1492 56.9169C25.2436 55.1242 24.7908 52.9989 24.7908 50.5409C24.7908 49.0994 24.9664 47.704 25.3176 46.3549C25.6872 44.9873 26.2324 43.7583 26.9531 42.6679C27.6739 41.559 28.5703 40.6534 29.6422 39.9512C30.7326 39.2489 32.0078 38.833 33.4678 38.7037C33.6156 38.6852 33.7542 38.6759 33.8836 38.6759C34.013 38.6759 34.1423 38.6759 34.2717 38.6759C35.1958 38.6759 36.0182 38.7961 36.739 39.0363C37.4597 39.2581 38.1897 39.5168 38.929 39.8125C40.2596 40.3485 41.3685 41.1432 42.2556 42.1966C43.1427 43.2501 43.808 44.4883 44.2516 45.9114C44.6951 47.3159 44.9169 48.8221 44.9169 50.43C44.9169 51.927 44.7413 53.3593 44.3902 54.7269C44.039 56.0945 43.5031 57.3328 42.7823 58.4416C42.08 59.532 41.1837 60.4191 40.0933 61.1029C39.0214 61.8052 37.7554 62.221 36.2954 62.3504ZM33.4955 60.6871C34.9186 60.5762 36.1568 60.1881 37.2102 59.5228C38.2637 58.839 39.1323 57.9611 39.8161 56.8892C40.4999 55.7988 41.0081 54.5883 41.3408 53.2576C41.6919 51.9085 41.8675 50.5039 41.8675 49.0439C41.8675 47.7133 41.7104 46.4473 41.3962 45.246C41.1005 44.0263 40.6385 42.9451 40.0101 42.0026C39.3818 41.06 38.5871 40.3208 37.6261 39.7848C36.6835 39.2304 35.5654 38.9532 34.2717 38.9532C34.1423 38.9532 34.013 38.9532 33.8836 38.9532C33.7727 38.9532 33.6433 38.9624 33.4955 38.9809C32.0724 39.1103 30.8342 39.5168 29.7808 40.2006C28.7273 40.866 27.8495 41.7438 27.1472 42.8342C26.4449 43.9061 25.9182 45.1074 25.5671 46.4381C25.2344 47.7502 25.0681 49.1178 25.0681 50.5409C25.0681 51.927 25.2251 53.2392 25.5393 54.4774C25.8535 55.6972 26.3248 56.7783 26.9531 57.7209C27.5815 58.6449 28.3762 59.3749 29.3372 59.9109C30.2982 60.4468 31.4164 60.7148 32.6916 60.7148C32.8394 60.7148 32.978 60.7148 33.1074 60.7148C33.2368 60.7148 33.3661 60.7056 33.4955 60.6871ZM33.4955 56.3902C33.4216 56.3902 33.3477 56.3995 33.2737 56.4179C33.2183 56.4179 33.1536 56.4179 33.0797 56.4179C31.9708 56.4179 31.0929 55.9374 30.4461 54.9764C29.8177 54.0154 29.5036 52.4075 29.5036 50.1528C29.5036 48.5449 29.6791 47.2512 30.0303 46.2717C30.3814 45.2922 30.8619 44.5715 31.4718 44.1094C32.0817 43.6289 32.7563 43.3609 33.4955 43.3055C33.5694 43.3055 33.6433 43.3055 33.7173 43.3055C33.7912 43.287 33.8651 43.2778 33.9391 43.2778C35.0294 43.2778 35.8796 43.749 36.4895 44.6916C37.0993 45.6157 37.4043 47.205 37.4043 49.4597C37.4043 51.8623 37.0347 53.5995 36.2954 54.6715C35.5746 55.7249 34.6413 56.2978 33.4955 56.3902ZM33.4123 56.113C34.5027 56.0206 35.3898 55.4662 36.0736 54.4497C36.7759 53.4332 37.1271 51.7699 37.1271 49.4597C37.1271 48.4063 37.0624 47.51 36.933 46.7707C36.8036 46.0315 36.6096 45.4308 36.3509 44.9688C36.2584 44.9503 36.166 44.9411 36.0736 44.9411C35.9812 44.9226 35.8888 44.9134 35.7964 44.9134C34.706 44.9134 33.8928 45.4863 33.3569 46.6321C32.8209 47.7595 32.553 49.3951 32.553 51.5389C32.553 52.6108 32.6269 53.5256 32.7747 54.2834C32.9226 55.0226 33.1351 55.6325 33.4123 56.113Z" fill="white"/>
<path d="M56.9216 60.4376V53.0636L55.1196 53.2299V61.9069L50.3515 62.3227L47.5793 60.9366V39.868L52.3474 39.4522L55.1196 40.8382V47.0757L56.9216 46.9093V39.3413L61.7174 38.8977L64.4896 40.2838V61.3801L59.6937 61.796L56.9216 60.4376ZM57.1988 39.5908V47.1588L52.0702 47.6024V39.7571L47.8565 40.1175V60.6317L52.0702 60.299V51.5943L57.1988 51.1508V60.1327L61.4402 59.7446V39.2027L57.1988 39.5908Z" fill="white"/>
<path d="M81.7959 39.0086L84.568 40.3947V54.4497C84.568 56.8338 83.9489 58.7004 82.7107 60.0495C81.4909 61.3986 79.8276 62.1748 77.7207 62.3781C77.5914 62.3966 77.4528 62.4059 77.3049 62.4059C77.1755 62.4059 77.0369 62.4059 76.8891 62.4059C76.002 62.4059 75.1703 62.2765 74.3941 62.0177C73.6364 61.759 72.8509 61.4263 72.0378 61.0198C71.1507 60.5577 70.4114 60.0495 69.82 59.4951C69.2286 58.9406 68.7851 58.2476 68.4894 57.4159C68.1937 56.5658 68.0458 55.5031 68.0458 54.2279V39.9512L72.8971 39.5076L75.6693 40.8937V54.3388C75.6693 54.6345 75.6786 54.9117 75.697 55.1704C75.734 55.4107 75.771 55.6325 75.8079 55.8358C76.233 55.614 76.5564 55.2351 76.7782 54.6992C77 54.1632 77.1109 53.4425 77.1109 52.5369V39.4244L81.7959 39.0086ZM77.3881 39.6739V52.5369C77.3881 53.8306 77.1755 54.7731 76.7505 55.3645C76.3254 55.9374 75.734 56.2608 74.9763 56.3348H74.6991C74.0153 56.3348 73.4978 56.0668 73.1466 55.5308C72.7955 54.9949 72.6199 54.1355 72.6199 52.9527V39.8125L68.323 40.2006V54.2279C68.323 56.3533 68.822 57.9704 69.82 59.0792C70.818 60.1881 72.2411 60.7425 74.0892 60.7425C74.237 60.7425 74.3756 60.7425 74.505 60.7425C74.6529 60.7425 74.7915 60.7333 74.9208 60.7148C76.9538 60.5485 78.5616 59.8092 79.7444 58.4971C80.9272 57.1664 81.5186 55.3553 81.5186 53.0636V39.3135L77.3881 39.6739Z" fill="white"/>
<path d="M88.1063 60.8257V39.7571L92.8467 39.3413L95.6189 40.7274V55.5031L99.4999 55.1704L102.272 56.5565V61.2415L90.8784 62.2118L88.1063 60.8257ZM92.5695 56.0576V39.6462L88.3835 40.0066V60.5485L99.2227 59.6059V55.4754L92.5695 56.0576Z" fill="white"/>
<path d="M104.055 60.5762V39.5076L108.879 39.0641L111.651 40.4501V61.5188L106.827 61.9346L104.055 60.5762ZM104.332 39.7571V60.2713L108.601 59.8832V39.369L104.332 39.7571Z" fill="white"/>
<path d="M125.043 60.299L124.018 57.0001L121.828 57.1941L120.469 62.0455L115.757 62.4613L112.984 61.0752L119.056 39.4244L123.63 39.0363L126.402 40.4224L132.584 61.297L127.816 61.6851L125.043 60.299ZM119.277 39.7017L113.4 60.7425L117.448 60.4099L118.834 55.5586L123.768 55.115L125.238 60.0218L129.424 59.6614L123.408 39.3413L119.277 39.7017ZM119.804 51.5112C120.155 50.3653 120.442 49.2749 120.663 48.24C120.904 47.205 121.107 46.1701 121.273 45.1351H121.384C121.532 46.1516 121.717 47.1496 121.939 48.1291C122.179 49.0901 122.465 50.1251 122.798 51.2339L119.804 51.5112Z" fill="white"/>
<path d="M134.078 60.5762V39.5076L138.902 39.0641L141.674 40.4501V61.5188L136.85 61.9346L134.078 60.5762ZM134.355 39.7571V60.2713L138.624 59.8832V39.369L134.355 39.7571Z" fill="white"/>
<path d="M145.364 60.8534V39.7848L157.312 38.7314L160.084 40.1175V44.6639L152.876 45.3015V46.9648L155.843 46.6876L158.615 48.0737V52.5646L152.876 53.0913V55.6972L157.783 55.2536L160.555 56.6397V61.1584L148.136 62.2395L145.364 60.8534ZM149.827 56.2516V51.4557L155.565 50.929V46.9925L149.827 47.5192V43.6659L157.035 43.0283V39.0363L145.641 40.0343V60.5762L157.506 59.5228V55.5586L149.827 56.2516Z" fill="white"/>
<path d="M166.62 60.5485L160.937 39.9512L166.121 39.5076L168.893 40.8937L170.224 46.244L171.887 39.2581L176.905 38.8146L179.677 40.2006L174.105 61.5188L169.392 61.9346L166.62 60.5485ZM172.109 39.5353L169.697 49.7924C169.568 50.4023 169.457 51.0122 169.364 51.6221C169.272 52.2135 169.207 52.7032 169.17 53.0913C169.133 53.4794 169.115 53.6735 169.115 53.6735H169.032C169.032 53.6735 169.004 53.4887 168.949 53.119C168.912 52.7309 168.847 52.2504 168.755 51.6775C168.662 51.1046 168.542 50.5132 168.394 49.9033L165.899 39.8125L161.297 40.2006L166.814 60.2713L171.083 59.8832L176.517 39.1472L172.109 39.5353Z" fill="white"/>
<path d="M191.506 60.299L190.48 57.0001L188.29 57.1941L186.931 62.0455L182.219 62.4613L179.447 61.0752L185.518 39.4244L190.092 39.0363L192.864 40.4224L199.046 61.297L194.278 61.6851L191.506 60.299ZM185.739 39.7017L179.862 60.7425L183.91 60.4099L185.296 55.5586L190.23 55.115L191.7 60.0218L195.886 59.6614L189.87 39.3413L185.739 39.7017ZM186.266 51.5112C186.617 50.3653 186.904 49.2749 187.125 48.24C187.366 47.205 187.569 46.1701 187.735 45.1351H187.846C187.994 46.1516 188.179 47.1496 188.401 48.1291C188.641 49.0901 188.927 50.1251 189.26 51.2339L186.266 51.5112Z" fill="white"/>
</svg>
