<svg width="300" height="300" viewBox="0 0 300 300" fill="none" xmlns="http://www.w3.org/2000/svg">
<g clip-path="url(#clip0_41_37)">
<path d="M46.4645 40.5355C48.4171 38.5829 51.5829 38.5829 53.5355 40.5355L96.4645 83.4645C98.4171 85.4171 98.4171 88.5829 96.4645 90.5355L53.5355 133.464C51.5829 135.417 48.4171 135.417 46.4645 133.464L3.53553 90.5355C1.58291 88.5829 1.58291 85.4171 3.53553 83.4645L46.4645 40.5355Z" fill="#F70776" fill-opacity="0.19"/>
<path d="M46.4645 40.5355C48.4171 38.5829 51.5829 38.5829 53.5355 40.5355L96.4645 83.4645C98.4171 85.4171 98.4171 88.5829 96.4645 90.5355L53.5355 133.464C51.5829 135.417 48.4171 135.417 46.4645 133.464L3.53553 90.5355C1.58291 88.5829 1.58291 85.4171 3.53553 83.4645L46.4645 40.5355Z" fill="#F70776" fill-opacity="0.19"/>
<path d="M291.784 175.977C294.522 176.334 296.453 178.843 296.097 181.581L288.261 241.784C287.905 244.522 285.396 246.453 282.658 246.097L222.455 238.261C219.716 237.905 217.785 235.396 218.142 232.658L225.977 172.455C226.334 169.716 228.843 167.786 231.581 168.142L291.784 175.977Z" fill="#F70776" fill-opacity="0.19"/>
<path d="M291.784 175.977C294.522 176.334 296.453 178.843 296.097 181.581L288.261 241.784C287.905 244.522 285.396 246.453 282.658 246.097L222.455 238.261C219.716 237.905 217.785 235.396 218.142 232.658L225.977 172.455C226.334 169.716 228.843 167.786 231.581 168.142L291.784 175.977Z" fill="#F70776" fill-opacity="0.19"/>
<path d="M19.023 238.639H19.0294C20.2754 238.639 21.4703 238.144 22.3519 237.264C23.2335 236.383 23.7297 235.189 23.7316 233.943L23.9109 104.904C23.9208 101.468 25.2916 98.1754 27.7233 95.7473C30.1549 93.3191 33.4495 91.9531 36.8859 91.9481H108.36C109.598 91.9343 110.78 91.4329 111.651 90.5526C112.521 89.6723 113.009 88.4843 113.009 87.2463C113.009 86.0083 112.521 84.8202 111.651 83.94C110.78 83.0597 109.598 82.5583 108.36 82.5444H36.8859C30.9589 82.5529 25.2766 84.909 21.0825 89.097C16.8885 93.285 14.5242 98.9639 14.5072 104.891L14.3279 233.93C14.3262 235.177 14.8199 236.374 15.7003 237.257C16.5808 238.14 17.776 238.637 19.023 238.639V238.639Z" fill="#F70776"/>
<path d="M246.465 91.9482H263.293C266.734 91.9518 270.032 93.3199 272.465 95.7524C274.897 98.1848 276.266 101.483 276.27 104.923V233.952C276.283 235.19 276.785 236.373 277.665 237.243C278.545 238.114 279.733 238.602 280.971 238.602C282.209 238.602 283.397 238.114 284.278 237.243C285.158 236.373 285.659 235.19 285.673 233.952V104.923C285.666 98.9901 283.306 93.3019 279.111 89.1066C274.916 84.9112 269.228 82.5513 263.295 82.5445H246.466C245.845 82.5375 245.227 82.654 244.651 82.8872C244.074 83.1204 243.55 83.4656 243.108 83.9029C242.665 84.3402 242.314 84.8609 242.075 85.4348C241.835 86.0087 241.712 86.6244 241.712 87.2463C241.712 87.8682 241.835 88.484 242.075 89.0579C242.314 89.6318 242.665 90.1525 243.108 90.5898C243.55 91.0271 244.074 91.3723 244.651 91.6055C245.227 91.8386 245.845 91.9551 246.466 91.9482H246.465Z" fill="#F70776"/>
<path d="M178.152 244.289C177.508 244.289 176.871 244.421 176.28 244.678C175.69 244.934 175.158 245.309 174.718 245.779C174.278 246.249 173.94 246.805 173.723 247.411C173.507 248.017 173.418 248.662 173.46 249.304C173.566 250.513 174.125 251.637 175.025 252.451C175.925 253.265 177.1 253.708 178.313 253.693H289.683C288.744 256.013 287.133 258 285.058 259.4C282.983 260.8 280.538 261.549 278.035 261.552H21.965C19.4619 261.549 17.0165 260.8 14.9415 259.4C12.8665 258 11.2562 256.013 10.3166 253.693H121.886C123.099 253.708 124.273 253.265 125.173 252.451C126.073 251.637 126.632 250.513 126.738 249.304C126.781 248.662 126.692 248.017 126.475 247.411C126.259 246.805 125.92 246.249 125.48 245.779C125.041 245.309 124.509 244.934 123.918 244.678C123.328 244.421 122.691 244.289 122.047 244.289H4.70098C4.08359 244.289 3.47224 244.411 2.90186 244.647C2.33147 244.883 1.81321 245.23 1.37668 245.666C0.940143 246.103 0.593884 246.621 0.357672 247.191C0.121461 247.762 -7.6916e-05 248.373 3.65195e-08 248.991C3.65195e-08 254.816 2.31411 260.403 6.43324 264.522C10.5524 268.641 16.1391 270.955 21.9645 270.955H278.035C283.86 270.955 289.447 268.641 293.566 264.522C297.685 260.403 300 254.816 300 248.991C300 248.373 299.879 247.762 299.642 247.191C299.406 246.621 299.06 246.103 298.623 245.666C298.187 245.23 297.669 244.883 297.098 244.647C296.528 244.411 295.916 244.289 295.299 244.289H178.152Z" fill="#F70776"/>
<path d="M141.463 244.289C140.225 244.303 139.042 244.804 138.172 245.685C137.301 246.565 136.813 247.753 136.813 248.991C136.813 250.229 137.301 251.417 138.172 252.297C139.042 253.177 140.225 253.679 141.463 253.693H158.537C159.774 253.679 160.957 253.177 161.827 252.297C162.698 251.417 163.186 250.229 163.186 248.991C163.186 247.753 162.698 246.565 161.827 245.685C160.957 244.804 159.774 244.303 158.537 244.289H141.463Z" fill="white"/>
<path d="M65.2424 152.592L59.7657 198.809C59.6221 202.467 61.9729 208.344 68.5131 207.858L115.158 202.328C116.133 202.212 117.042 201.772 117.736 201.077L214.857 103.952C215.734 103.069 216.226 101.875 216.224 100.631C216.221 99.3863 215.726 98.1935 214.846 97.3136C213.966 96.4337 212.774 95.9385 211.529 95.9364C210.285 95.9343 209.091 96.4255 208.208 97.3025L118.639 186.872L118.209 179.43L204.274 93.3685C205.151 92.4856 205.642 91.2912 205.64 90.0468C205.638 88.8025 205.142 87.6097 204.263 86.7298C203.383 85.8499 202.19 85.3547 200.946 85.3526C199.701 85.3505 198.507 85.8417 197.624 86.7187L111.817 172.525C111.672 172.508 111.524 172.488 111.378 172.479L97.96 171.704L97.0606 156.135L182.051 71.1462C182.928 70.2634 183.419 69.0689 183.417 67.8246C183.415 66.5802 182.92 65.3874 182.04 64.5075C181.16 63.6276 179.967 63.1324 178.723 63.1303C177.478 63.1282 176.284 63.6195 175.401 64.4964L90.8344 149.062C90.6323 149.034 90.4284 149.01 90.221 148.999L81.1899 148.476L170.286 59.3812C171.137 58.4931 171.606 57.3071 171.593 56.0774C171.579 54.8477 171.085 53.6722 170.215 52.8028C169.345 51.9334 168.169 51.4393 166.94 51.4265C165.71 51.4137 164.524 51.8832 163.637 52.7343L66.6241 149.745C65.857 150.512 65.3704 151.515 65.2424 152.592V152.592ZM108.926 181.758L109.606 193.519L94.3536 195.327L81.8948 182.869C81.4581 182.432 80.9398 182.086 80.3693 181.85C79.7989 181.613 79.1875 181.492 78.57 181.492C77.9526 181.492 77.3412 181.614 76.7708 181.85C76.2004 182.086 75.6821 182.433 75.2456 182.869C74.809 183.306 74.4627 183.824 74.2265 184.395C73.9903 184.965 73.8687 185.577 73.8688 186.194C73.8688 186.811 73.9905 187.423 74.2268 187.993C74.4631 188.564 74.8095 189.082 75.2461 189.518L82.4643 196.737L69.4014 198.281C69.3885 198.283 69.3754 198.281 69.3632 198.277C69.3509 198.273 69.3398 198.266 69.3306 198.257C69.3214 198.247 69.3144 198.236 69.3101 198.224C69.3058 198.212 69.3044 198.199 69.3059 198.186L74.1317 157.487L87.7676 158.275L88.6852 174.154C88.7865 175.931 89.5377 177.608 90.7958 178.867C92.0539 180.126 93.7311 180.878 95.5079 180.981L108.926 181.758Z" fill="#F70776"/>
<path d="M184.556 45.1119L187.72 41.9443C188.829 40.8359 190.144 39.9566 191.592 39.3567C193.041 38.7568 194.593 38.4481 196.16 38.4481C197.728 38.4481 199.28 38.7568 200.728 39.3567C202.176 39.9566 203.492 40.8359 204.6 41.9443L224.511 61.8544C226.866 64.2084 228.269 67.3483 228.453 70.6728C228.637 73.9973 227.588 77.2728 225.507 79.872L195.482 49.841C195.046 49.4019 194.528 49.0533 193.957 48.815C193.385 48.5768 192.773 48.4536 192.154 48.4526C191.535 48.4515 190.922 48.5727 190.35 48.809C189.778 49.0453 189.259 49.3922 188.821 49.8298C188.384 50.2674 188.037 50.787 187.8 51.3589C187.564 51.9308 187.443 52.5438 187.444 53.1626C187.445 53.7814 187.568 54.394 187.807 54.9651C188.045 55.5362 188.393 56.0547 188.832 56.4908L222.25 89.9091C225.359 92.5623 229.472 89.6232 231.162 87.6468C235.464 83.3446 237.881 77.5097 237.881 71.4257C237.881 65.3417 235.464 59.5069 231.162 55.2046L211.252 35.2951C209.271 33.3133 206.918 31.7413 204.329 30.6688C201.74 29.5962 198.965 29.0442 196.163 29.0442C193.36 29.0442 190.585 29.5962 187.996 30.6688C185.407 31.7413 183.054 33.3133 181.073 35.2951L177.909 38.4626C177.465 38.8977 177.112 39.4164 176.87 39.9887C176.628 40.5611 176.502 41.1757 176.498 41.7972C176.495 42.4186 176.616 43.0345 176.852 43.6092C177.088 44.1839 177.436 44.7061 177.876 45.1455C178.315 45.5849 178.837 45.9328 179.412 46.1692C179.987 46.4055 180.603 46.5256 181.224 46.5225C181.846 46.5194 182.46 46.3931 183.033 46.151C183.605 45.9088 184.124 45.5557 184.559 45.1119H184.556Z" fill="white"/>
<path d="M62.7831 216.064H62.7749C61.537 216.077 60.354 216.577 59.4828 217.457C58.6116 218.336 58.1223 219.524 58.1213 220.762C58.1203 222 58.6076 223.189 59.4774 224.07C60.3472 224.95 61.5294 225.453 62.7673 225.468L237.217 225.75H237.225C238.463 225.737 239.646 225.236 240.517 224.357C241.388 223.477 241.878 222.289 241.879 221.051C241.88 219.813 241.392 218.625 240.522 217.744C239.653 216.863 238.47 216.361 237.233 216.346L62.7831 216.064Z" fill="white"/>
</g>
<defs>
<clipPath id="clip0_41_37">
<rect width="300" height="300" fill="white"/>
</clipPath>
</defs>
</svg>
